<svg width="508" height="356" viewBox="0 0 508 356" fill="none" xmlns="http://www.w3.org/2000/svg">
<g opacity="0.6">
<path d="M224.746 371.856C229.587 369.009 234.381 366.584 239.088 364.696C304.017 338.641 373.371 360.119 414.572 357.829C455.773 355.54 517.803 333.415 535.885 260.93C540.21 243.598 544.832 225.718 550.792 207.686" stroke="#8C8C8C" stroke-width="0.5" stroke-miterlimit="22.9256"/>
<path d="M1.00001 371.967C9.24011 352.844 37.1498 296.38 90.5327 265.925C155.461 228.883 224.816 261.348 266.017 259.058C307.219 256.769 369.248 234.643 387.331 162.16C405.187 90.5861 456.202 43.6029 550.792 1.00041" stroke="#8C8C8C" stroke-width="0.5" stroke-miterlimit="22.9256"/>
<path d="M103.239 371.967C122.053 351.455 141.5 333.971 159.357 324.781C224.285 291.365 293.64 320.203 334.841 317.914C376.042 315.625 438.072 293.498 456.154 221.016C469.368 168.047 494.85 115.918 550.792 69.5353" stroke="#8C8C8C" stroke-width="0.5" stroke-miterlimit="22.9256"/>
</g>
</svg>
