<svg width="92" height="31" viewBox="0 0 92 31" fill="none" xmlns="http://www.w3.org/2000/svg">
<path d="M28.0341 11.8182H20.0227C19.9659 11.1553 19.8144 10.554 19.5682 10.0142C19.3314 9.47443 19 9.01042 18.5739 8.62216C18.1572 8.22443 17.6506 7.9214 17.054 7.71307C16.4574 7.49526 15.7803 7.38636 15.0227 7.38636C13.697 7.38636 12.5748 7.70833 11.6562 8.35227C10.7472 8.99621 10.0559 9.91951 9.58239 11.1222C9.11837 12.3248 8.88636 13.7689 8.88636 15.4545C8.88636 17.2348 9.12311 18.7263 9.59659 19.929C10.0795 21.1222 10.7756 22.0218 11.6847 22.6278C12.5938 23.2244 13.6875 23.5227 14.9659 23.5227C15.6951 23.5227 16.3485 23.4328 16.9261 23.2528C17.5038 23.0634 18.0057 22.7936 18.4318 22.4432C18.858 22.0928 19.2036 21.6714 19.4688 21.179C19.7434 20.6771 19.928 20.1136 20.0227 19.4886L28.0341 19.5455C27.9394 20.7765 27.5938 22.0312 26.9972 23.3097C26.4006 24.5786 25.553 25.7528 24.4545 26.8324C23.3655 27.9025 22.0161 28.7642 20.4062 29.4176C18.7964 30.071 16.9261 30.3977 14.7955 30.3977C12.125 30.3977 9.72917 29.8248 7.60795 28.679C5.49621 27.5331 3.82481 25.8475 2.59375 23.6222C1.37216 21.3968 0.761364 18.6742 0.761364 15.4545C0.761364 12.2159 1.38636 9.48864 2.63636 7.27273C3.88636 5.04735 5.57197 3.36648 7.69318 2.23011C9.81439 1.08428 12.1818 0.511363 14.7955 0.511363C16.6326 0.511363 18.3229 0.762309 19.8665 1.2642C21.41 1.7661 22.7642 2.5 23.929 3.46591C25.0938 4.42235 26.0313 5.60133 26.7415 7.00284C27.4517 8.40436 27.8826 10.0095 28.0341 11.8182ZM31.6172 30V0.90909H44.174C46.3331 0.90909 48.2223 1.30208 49.8416 2.08807C51.4609 2.87405 52.7204 4.00568 53.62 5.48295C54.5196 6.96023 54.9695 8.73106 54.9695 10.7955C54.9695 12.8788 54.5054 14.6354 53.5774 16.0653C52.6589 17.4953 51.3662 18.5748 49.6996 19.304C48.0424 20.0331 46.1058 20.3977 43.8899 20.3977H36.3899V14.2614H42.299C43.227 14.2614 44.0178 14.1477 44.6712 13.9205C45.334 13.6837 45.8407 13.3097 46.1911 12.7983C46.5509 12.2869 46.7308 11.6193 46.7308 10.7955C46.7308 9.96212 46.5509 9.28504 46.1911 8.7642C45.8407 8.2339 45.334 7.84564 44.6712 7.59943C44.0178 7.34375 43.227 7.21591 42.299 7.21591H39.5149V30H31.6172ZM48.6626 16.6477L55.9354 30H47.3558L40.2536 16.6477H48.6626ZM58.3359 0.90909H68.1655L74.9268 17.3864H75.2678L82.0291 0.90909H91.8587V30H84.1314V13.1818H83.9041L77.4268 29.7727H72.7678L66.2905 13.0682H66.0632V30H58.3359V0.90909Z" fill="#CF9338"/>
</svg>
